# xmcd CD database file
#
# Track frame offsets:
#	150
#	13751
#	25086
#	38535
#	49873
#	59663
#	74294
#	93151
#	105505
#	117559
#	128139
#	142024
#	153049
#	163314
#	173668
#	184872
#
# Disc length: 2627 seconds
#
# Revision: 2
# Processed by: cddbd v1.5.1PL0 Copyright (c) Steve Scherf et al.
# Submitted via: CDex 1.60beta1
#
DISCID=d60a4110
DTITLE=Various Artist - ついつい 〜ツインテールツインズ〜 オリジナルサウンドトラック
DYEAR=2005
DGENRE=Game
TTITLE0=平野響子 - 一緒に行こう
TTITLE1=はにぃぽっと - 晴れのち晴れ
TTITLE2=はにぃぽっと - 毎日が日曜日
TTITLE3=はにぃぽっと - 沈思の……
TTITLE4=はにぃぽっと - 心の日記帳
TTITLE5=はにぃぽっと - ナイショだよ
TTITLE6=はにぃぽっと - 一緒に行こう [Instrumental]
TTITLE7=はにぃぽっと - いつきGo！
TTITLE8=はにぃぽっと - おさんぽっぽ〜
TTITLE9=はにぃぽっと - 大輪に咲ける華
TTITLE10=はにぃぽっと - 咒
TTITLE11=はにぃぽっと - Lethal Weapon
TTITLE12=はにぃぽっと - モッ・ハイ・バー
TTITLE13=はにぃぽっと - 黄昏の凸凹伝説
TTITLE14=はにぃぽっと - 大変だ〜〜！
TTITLE15=海原エレナ - でもね……。
EXTD=YEAR: 2005
EXTT0=
EXTT1=
EXTT2=
EXTT3=
EXTT4=
EXTT5=
EXTT6=
EXTT7=
EXTT8=
EXTT9=
EXTT10=
EXTT11=
EXTT12=
EXTT13=
EXTT14=
EXTT15=
PLAYORDER=
